<?xml version="1.0" encoding="UTF-8" standalone="no"?>
<!-- Created with Inkscape (http://www.inkscape.org/) -->

<svg
   width="64mm"
   height="64mm"
   viewBox="0 0 0.64 0.64"
   version="1.1"
   id="svg1"
   xml:space="preserve"
   inkscape:version="1.4 (86a8ad7, 2024-10-11)"
   sodipodi:docname="logo red antisocial.svg"
   xmlns:inkscape="http://www.inkscape.org/namespaces/inkscape"
   xmlns:sodipodi="http://sodipodi.sourceforge.net/DTD/sodipodi-0.dtd"
   xmlns="http://www.w3.org/2000/svg"
   xmlns:svg="http://www.w3.org/2000/svg"><sodipodi:namedview
     id="namedview1"
     pagecolor="#505050"
     bordercolor="#eeeeee"
     borderopacity="1"
     inkscape:showpageshadow="0"
     inkscape:pageopacity="0"
     inkscape:pagecheckerboard="0"
     inkscape:deskcolor="#505050"
     inkscape:document-units="px"
     inkscape:zoom="2"
     inkscape:cx="110"
     inkscape:cy="140.75"
     inkscape:window-width="1280"
     inkscape:window-height="961"
     inkscape:window-x="-8"
     inkscape:window-y="-8"
     inkscape:window-maximized="1"
     inkscape:current-layer="layer1" /><defs
     id="defs1" /><g
     inkscape:label="Capa 1"
     inkscape:groupmode="layer"
     id="layer1"><g
       id="g7"
       transform="matrix(0.79938121,0,0,0.79938121,0.03858495,0.1303315)"
       style="fill:#000000"><path
         d="m 0.45248222,0.16467555 a 0.12581174,0.12581174 0 0 0 0.0526642,0.0261848 c 0.001854,6.0652e-4 0.003101,-0.00182 0.001854,-0.003033 -0.041504,-0.039598 -0.0186984,-0.0824536 -0.001854,-0.10177599 0.0120093,-0.0137942 0.0291134,-0.0365132 0.0278657,-0.0669783 0,-0.00305 0.00312,-0.0054934 0.00558,-0.0036565 0.0235507,0.0121826 0.0396497,0.03899126 0.0439821,0.06091299 0.006829,-0.0066889 0.009306,-0.0170522 0.009306,-0.02618484 0,-0.0030494 0.003709,-0.0054931 0.006811,-0.0030494 0.0223029,0.02010212 0.060705,0.08832817 -0.001247,0.14192813 -0.001231,0.001231 0,0.003673 0.001247,0.003068 a 0.15182324,0.15182324 0 0 0 0.0520403,-0.024989 c 0.10097866,-0.0779825 0.0353001,-0.21627143 -0.007452,-0.26195184 -0.005563,-0.0054938 -0.0154752,-0.0018372 -0.0154752,0.0060822 -6.2386e-4,0.01646274 -0.00558,0.03472796 -0.0185772,0.04691054 -0.009912,-0.04141739 -0.0429424,-0.0884668 -0.0900264,-0.11161894 -0.006186,-0.003049 -0.013621,0.00182 -0.0129971,0.008526 0.001212,0.05666723 -0.0357512,0.09274714 -0.0679665,0.13965793 -0.028507,0.0420239 -0.0470841,0.11939986 0.0142451,0.16996722 z"
         fill="#000000"
         id="path4"
         style="display:inline;fill:#000000;stroke-width:0.0173295" /><path
         id="path5"
         style="display:inline;fill:#000000"
         d="m 677.68286,0.033 v 338.82253 h 510.62904 c -7.6775,-30.8292 -11.1115,-61.98754 -10.5732,-92.72467 1.6002,-91.35854 33.081,-179.133695 73.1286,-246.09786 z M 0.00679521,451.74986 V 1468.2175 H 338.82932 v 418.6795 l 418.67954,-418.6795 h 484.84724 c 0,0 0.2241,-1010.37458 0.2241,-1016.40772 z M 1355.2194,564.70621 v 531.86839 l 338.9466,338.9466 v -419.0206 h 225.8661 V 572.8609 c -79.7572,42.59457 -178.2684,65.4631 -279.3832,65.85761 -101.4158,0.39578 -204.0031,-23.81607 -285.4295,-74.0123 z M 392.43941,722.03273 c 11.87283,0 23.74599,4.53775 32.80478,13.59631 l 92.78667,92.77117 c 18.11573,18.11758 18.11573,47.49338 0,65.60956 -18.11758,18.11619 -47.49198,18.11619 -65.60956,0 l -92.78668,-92.78668 c -18.11711,-18.11757 -18.11711,-47.47647 0,-65.59405 9.05879,-9.05856 20.93196,-13.59631 32.80479,-13.59631 z m 463.91788,0 c 11.87295,0 23.74668,4.53775 32.80478,13.59631 18.11618,18.11758 18.11618,47.47648 0,65.59405 l -92.77117,92.78668 c -18.11619,18.11619 -47.49337,18.11619 -65.60956,0 -18.11619,-18.11618 -18.11619,-47.49198 0,-65.60956 l 92.77117,-92.77117 c 9.0581,-9.05856 20.93184,-13.59631 32.80478,-13.59631 z M 624.28983,1000.3928 c 80.85711,0 137.33474,27.2543 173.96145,56.5556 18.0234,14.4188 30.82011,28.9716 39.30062,40.2774 5.10779,6.8104 9.986,13.969 13.81336,21.5959 11.4589,22.9178 2.15436,50.771 -20.75879,62.2299 -22.73686,11.3707 -50.34041,2.3228 -61.96631,-20.2007 -0.64022,-1.1551 -9.37163,-16.2718 -28.35536,-31.456 -21.36364,-17.0909 -57.67987,-36.2155 -115.99497,-36.2155 -58.31974,0 -94.63273,19.1246 -115.99498,36.2155 -18.98326,15.1842 -27.71468,30.3009 -28.35536,31.456 -11.62312,22.5235 -39.22992,31.5714 -61.96631,20.2007 -22.62969,-11.3151 -32.06123,-39.6756 -20.71228,-62.2919 3.99159,-7.5526 8.6405,-14.7003 13.76685,-21.5339 8.48098,-11.3058 21.29643,-25.8586 39.31612,-40.2774 36.6281,-29.3013 93.08421,-56.5556 173.94596,-56.5556 z"
         transform="matrix(3.3332742e-4,0,0,3.3332742e-4,2.9026144e-6,-1.0999805e-5)"
         sodipodi:nodetypes="cccsccccccccccccccccscsccccccsscccsccsssccsccsccccscs" /></g></g></svg>
